<?xml version="1.0" encoding="utf-8"?>
<!-- Generator: Adobe Illustrator 23.0.1, SVG Export Plug-In . SVG Version: 6.00 Build 0)  -->
<svg version="1.1" id="Lager_1" xmlns="http://www.w3.org/2000/svg" xmlns:xlink="http://www.w3.org/1999/xlink" x="0px" y="0px"
	 viewBox="0 0 595.3 841.9" style="enable-background:new 0 0 595.3 841.9;" xml:space="preserve">
<style type="text/css">
	.st0{stroke:#000000;stroke-miterlimit:10;}
	.st1{fill:#7F5E14;stroke:#000000;stroke-miterlimit:10;}
	.st2{fill:#F59A30;stroke:#000000;stroke-miterlimit:10;}
	.st3{fill:#F9B76B;stroke:#000000;stroke-miterlimit:10;}
	.st4{fill:none;}
	.st5{font-family:'ArialMT';}
	.st6{font-size:12px;}
	.st7{font-size:6.7396px;}
	.st8{fill:none;stroke:#000000;stroke-width:0.25;stroke-miterlimit:10;}
	.st9{opacity:0.3;fill:#FFFFFF;stroke:#FFFFFF;stroke-miterlimit:10;}
	.st10{opacity:0.2;fill:#1D1D1B;stroke:#1D1D1B;stroke-miterlimit:10;}
	.st11{fill:none;stroke:#000000;stroke-miterlimit:10;}
	.st12{fill:#44B2E6;stroke:#000000;stroke-miterlimit:10;}
	.st13{opacity:0.7;fill:#E7E000;stroke:#000000;stroke-miterlimit:10;enable-background:new    ;}
	.st14{opacity:0.3;fill:#FFFFFF;enable-background:new    ;}
	.st15{opacity:0.3;enable-background:new    ;}
	.st16{opacity:0.1;fill:#FFFFFF;stroke:#FFFFFF;stroke-width:0.25;stroke-miterlimit:10;enable-background:new    ;}
	.st17{opacity:0.1;stroke:#000000;stroke-width:0.25;stroke-miterlimit:10;enable-background:new    ;}
	.st18{fill:#E0DE01;stroke:#000000;stroke-width:0.25;stroke-miterlimit:10;}
	.st19{stroke:#000000;stroke-width:0.25;stroke-miterlimit:10;}
</style>
<g id="Bok">
	<ellipse class="st0" cx="293.7" cy="510.9" rx="32.3" ry="25.9"/>
	<polygon class="st1" points="506,437 551.2,521.7 511.1,539.1 335.4,474.4 296.4,494.9 270.7,495.5 57.6,514.6 36.7,498.5 
		140.7,420.9 	"/>
	<path class="st2" d="M26.2,541.9l-3.1-9.7h6.4l-3.2-6.4h9.1l-4.6-6.1h8.4l-5.4-7.4h5.4l-4.1-5.1h8.4l-6.9-8.7
		c164,24.7,197.1-164.9,255.3-6.9C328.2,318.5,461,538.1,551,521.7l-5.4,5.4l5.4,1l-3.3,2.3l5.4,2.6l-5.4,1.3l5.4,2.8l-3.6,1.3
		l6.1,1.3l-6.1,2.3l8.2,2l-7.7,3.6h7.7l-4.9,4.1h9.7l-6.1,2.6l10.2,3.1c-77.4,22.7-148.3-58.2-242.3-49c-22.1-12.4-43.2-14.6-62,3.8
		C176.4,515.9,76.3,585.3,26.2,541.9z"/>
	<path class="st0" d="M20.5,534.7c-4.8-0.8-11.2,1.7-3.1,9.5c65,57.5,151.8-28.6,241.4-25.9c-10.2,35.1,80.7,23.5,72.5-6.1
		c77.3-17.7,166.1,84.8,241.7,48.3c10.2-5.1,6.3-11.6,0-7.5c-69.1,35.1-182.8-75.6-251.6-45.6c15.3,26.2-65.5,39.8-54.8,4.1
		C194.5,479.9,110.4,596.6,20.5,534.7z"/>
	<path class="st3" d="M291.9,380.8l0.6,109c-63.9-173.7-146.6,67.7-252.1-4.8c25-18.7,40.9-44.2,48-76.3
		C206.1,458.8,250.3,247.7,291.9,380.8z"/>
	<path class="st3" d="M547.2,506.1c-55.5,39.8-227.4-186.9-254.8-16.3l-0.6-109C311.9,229.3,493,470,518.2,433.6L547.2,506.1z"/>
	<path id="SVGID_x5F_1_x5F_" class="st4" d="M46.9,472.7c107.8,1.6,220.8-152,279.1-95.9"/>
	<text transform="matrix(1 0 0 1 122.2215 453.2191)" class="st5 st6"> </text>
	<text transform="matrix(1 0 0 1 125.2258 451.7735)" class="st5 st7">F</text>
	<text transform="matrix(1 0 0 1 128.9145 449.9455)" class="st5 st7">E</text>
	<text transform="matrix(1 0 0 1 132.9177 447.9004)" class="st5 st7">N</text>
	<text transform="matrix(1 0 0 1 137.224 445.6319)" class="st5 st7">D</text>
	<text transform="matrix(1 0 0 1 141.5006 443.3083)" class="st5 st7"> </text>
	<text transform="matrix(1 0 0 1 143.1415 442.4063)" class="st5 st7">1</text>
	<text transform="matrix(1 0 0 1 146.4127 440.5762)" class="st5 st7">8</text>
	<text transform="matrix(1 0 0 1 149.6689 438.7197)" class="st5 st7"> </text>
	<text transform="matrix(1 0 0 1 151.2939 437.7893)" class="st5 st7">G</text>
	<text transform="matrix(1 0 0 1 155.8174 435.14)" class="st5 st7">r</text>
	<text transform="matrix(1 0 0 1 157.749 433.9971)" class="st5 st7">u</text>
	<text transform="matrix(1 0 0 1 160.9649 432.0717)" class="st5 st7">p</text>
	<text transform="matrix(1 0 0 1 164.1709 430.1298)" class="st5 st7">p</text>
	<text transform="matrix(1 0 0 1 167.3671 428.1718)" class="st5 st7"> </text>
	<text transform="matrix(1 0 0 1 168.9617 427.1903)" class="st5 st7">1</text>
	<text transform="matrix(1 0 0 1 172.1466 425.2141)" class="st5 st7">0</text>
	<text transform="matrix(1 0 0 1 175.3242 423.226)" class="st5 st7"> </text>
	<text transform="matrix(1 0 0 1 176.9099 422.2303)" class="st5 st6"> </text>
	<text transform="matrix(1 0 0 1 0 -6.728313e-06)" class="st5 st6"> </text>
	<path class="st8" d="M48.2,508.2c56.2,49.5,228.4-145.8,230.3-20.7C258,418.6,98.2,568.4,46.9,521.2"/>
	<path class="st8" d="M38.7,527.9c43.7,75.6,185.1-69.7,239.7-40.3"/>
	<path class="st8" d="M542.4,527.9c-136-4.9-184.5-176-242.7-37.1c40.1-48.8,90.8-29.6,145,11.5"/>
	<path class="st8" d="M494.1,535.3c-78.6-18.6-114.2-88-194.4-44.6"/>
	<path class="st8" d="M237,289.6"/>
	<path class="st9" d="M75.4,458.7c9.6-13.6,14.8-27.8,16.7-42.6c49.5,22.4,105.5-20.8,151.8-66.1C225.3,396.4,164,431.2,75.4,458.7z
		"/>
	<path class="st10" d="M289.2,469.5v-57.7c-45.4-24.2-88.3-3.1-129.6,46.8C214.1,414.2,262.2,404.1,289.2,469.5z"/>
	<path class="st9" d="M294.9,421v-39.7c16.7-92,86.4-28.6,150.4,17.9C364.4,348.9,298.7,326.9,294.9,421z"/>
	<path class="st10" d="M527.2,463.7l15.2,40.3c-13.2,11.9-62.1-12.4-132.4-58.4C465.5,472.7,516.8,494.6,527.2,463.7z"/>
</g>
<g id="Glödlampa">
	<polygon class="st11" points="293,354.8 265.6,267.7 276.1,281.3 276.1,254.2 282.2,289.2 284.5,260.3 287.8,283.3 296.1,243.7 
		296.1,286.6 302.1,262.4 302.1,285.6 313.9,257.3 301.9,312.1 	"/>
	<path class="st12" d="M283.3,431.5l-10-14.9l8.2-6.9l30.4,2.4v5.7l-10.4,14.6C294.7,435,288.7,434.6,283.3,431.5z"/>
	<path class="st12" d="M311.9,417.8c6.4-1.2,11.5-5.4,16.3-10.4l-16.3-16.5l-46.8,3.2l-5.4,13.4c3.9,4.1,8.3,7.5,13.6,9.2
		C285.3,412.2,298.5,414.4,311.9,417.8z"/>
	<path class="st12" d="M257.9,364.5l1.8,42.9c25-12.7,48.5-10,68.4,0v-42.9C313.1,345.9,273.5,344.6,257.9,364.5z"/>
	<path class="st13" d="M328.2,364.5c-12.8-18.1-59.7-18.6-70.2,0c-4.4-2.9-7.4-6.6-5.4-13.8c4.9-43.1-30.4-50.6-30.4-77.9
		c-1.5-120.5,143.5-115.7,143.5-3.8c0,33.4-42.6,53.9-32.4,82.7C335.3,358.5,332.6,362.2,328.2,364.5z"/>
	<path class="st14" d="M291.9,357.3c-15.7,10.4-27,24-28.6,44.6l-1.9-36.1C269.9,359.2,280.5,357.3,291.9,357.3z"/>
	<path class="st15" d="M326,373.7V402c-5.1-4-15.2-5-26.3-5.4C312.9,393.7,323,387.6,326,373.7z"/>
	<path class="st14" d="M269.3,412.2c-2.9,0-4.8-1.5-5.6-4.8c5.8-3.2,12.5-5.3,20.7-5.5C276.5,404.4,269.6,407.1,269.3,412.2z"/>
	<path class="st15" d="M301.2,413.5l10.7,2.6l12-7.4C317.3,411.1,310.1,413,301.2,413.5z"/>
	<path class="st14" d="M282.1,426.5l-5.4-8.7c5.8-1.9,11.2-2.5,15.8-0.3C285,417.9,279,419.2,282.1,426.5z"/>
	<polygon class="st15" points="289.7,430.9 306.3,421.9 299.7,430.9 	"/>
	<path class="st16" d="M235,287.9c-25.5-55.5,30.6-124.6,91-89.5C268.8,213,238,242.6,235,287.9z"/>
	<path class="st17" d="M265.6,350c34.3-8,63-27.5,86.8-57.1c-14.2,21.6-29.8,44-31,57.1C317.1,344.5,293,343.4,265.6,350z"/>
</g>
<g id="lights">
	<polygon class="st18" points="112.8,312.3 217.3,279.7 165,263.7 207.2,279.7 	"/>
	<polygon class="st18" points="115.5,199 222.2,231 153,259.6 207.2,232.4 	"/>
	<polygon class="st18" points="382.4,104.4 329.6,188.8 277.3,135.7 327.8,179.6 	"/>
	<polygon class="st18" points="457.6,205 361,226.9 405.6,257.6 371.5,229.3 	"/>
	<polygon class="st18" points="457.6,308.6 368.8,279.7 402.5,259.6 378.3,278.3 	"/>
	<path class="st19" d="M206.3,172.9"/>
	<polygon class="st18" points="168.8,104.4 245.6,193.9 277.3,129.1 245.3,183.8 	"/>
</g>
</svg>
