<?xml version="1.0" encoding="utf-8"?>
<!-- Generator: Adobe Illustrator 23.0.1, SVG Export Plug-In . SVG Version: 6.00 Build 0)  -->
<svg version="1.1" id="Lager_1" xmlns="http://www.w3.org/2000/svg" xmlns:xlink="http://www.w3.org/1999/xlink" x="0px" y="0px"
	 viewBox="0 0 595.3 841.9" style="enable-background:new 0 0 595.3 841.9;" xml:space="preserve">
<style type="text/css">
	.st0{stroke:#000000;stroke-miterlimit:10;}
	.st1{fill:#7F5E14;stroke:#000000;stroke-miterlimit:10;}
	.st2{fill:#F59A30;stroke:#000000;stroke-miterlimit:10;}
	.st3{fill:#F9B76B;stroke:#000000;stroke-miterlimit:10;}
	.st4{fill:none;}
	.st5{font-family:'ArialMT';}
	.st6{font-size:12px;}
	.st7{font-size:6.7396px;}
	.st8{fill:none;stroke:#000000;stroke-width:0.25;stroke-miterlimit:10;}
	.st9{opacity:0.3;fill:#FFFFFF;stroke:#FFFFFF;stroke-miterlimit:10;enable-background:new    ;}
	.st10{opacity:0.2;fill:#1D1D1B;stroke:#1D1D1B;stroke-miterlimit:10;enable-background:new    ;}
	.st11{fill:none;stroke:#000000;stroke-miterlimit:10;}
	.st12{fill:#44B2E6;stroke:#000000;stroke-miterlimit:10;}
	.st13{opacity:0.7;fill:#E7E000;stroke:#000000;stroke-miterlimit:10;enable-background:new    ;}
	.st14{opacity:0.3;fill:#FFFFFF;enable-background:new    ;}
	.st15{opacity:0.3;enable-background:new    ;}
	.st16{opacity:0.1;fill:#FFFFFF;stroke:#FFFFFF;stroke-width:0.25;stroke-miterlimit:10;enable-background:new    ;}
	.st17{opacity:0.1;stroke:#000000;stroke-width:0.25;stroke-miterlimit:10;enable-background:new    ;}
	.st18{fill:#E0DE01;stroke:#000000;stroke-width:0.25;stroke-miterlimit:10;}
</style>
<g id="Bok">
	<ellipse class="st0" cx="286.6" cy="566.4" rx="32.3" ry="25.9"/>
	<polygon class="st1" points="498.9,492.5 544.1,577.2 504,594.6 328.3,529.9 289.3,550.4 263.6,551 50.5,570.1 29.6,554 
		133.6,476.4 	"/>
	<path class="st2" d="M19.1,597.4l-3.1-9.7h6.4l-3.2-6.4h9.1l-4.6-6.1h8.4l-5.4-7.4h5.4l-4.1-5.1h8.4l-6.9-8.7
		c164,24.7,197.1-164.9,255.3-6.9c36.3-173.1,169.1,46.5,259.1,30.1l-5.4,5.4l5.4,1l-3.3,2.3l5.4,2.6l-5.4,1.3l5.4,2.8l-3.6,1.3
		l6.1,1.3l-6.1,2.3l8.2,2l-7.7,3.6h7.7l-4.9,4.1h9.7l-6.1,2.6l10.2,3.1c-77.4,22.7-148.3-58.2-242.3-49c-22.1-12.4-43.2-14.6-62,3.8
		C169.3,571.4,69.2,640.8,19.1,597.4z"/>
	<path class="st0" d="M13.4,590.2c-4.8-0.8-11.2,1.7-3.1,9.5c65,57.5,151.8-28.6,241.4-25.9c-10.2,35.1,80.7,23.5,72.5-6.1
		c77.3-17.7,166.1,84.8,241.7,48.3c10.2-5.1,6.3-11.6,0-7.5c-69.1,35.1-182.8-75.6-251.6-45.6c15.3,26.2-65.5,39.8-54.8,4.1
		C187.4,535.4,103.3,652.1,13.4,590.2z"/>
	<path class="st3" d="M284.8,436.3l0.6,109c-63.9-173.7-146.6,67.7-252.1-4.8c25-18.7,40.9-44.2,48-76.3
		C199,514.3,243.2,303.2,284.8,436.3z"/>
	<path class="st3" d="M540.1,561.6c-55.5,39.8-227.4-186.9-254.8-16.3l-0.6-109c20.1-151.5,201.2,89.2,226.4,52.8L540.1,561.6z"/>
	<path id="SVGID_x5F_1_x5F_" class="st4" d="M39.8,528.2c107.8,1.6,220.8-152,279.1-95.9"/>
	<text transform="matrix(1 0 0 1 115.15 508.7467)" class="st5 st6"> </text>
	<text transform="matrix(1 0 0 1 118.1543 507.3011)" class="st5 st7">F</text>
	<text transform="matrix(1 0 0 1 121.843 505.4731)" class="st5 st7">E</text>
	<text transform="matrix(1 0 0 1 125.8462 503.428)" class="st5 st7">N</text>
	<text transform="matrix(1 0 0 1 130.1525 501.1595)" class="st5 st7">D</text>
	<text transform="matrix(1 0 0 1 134.4291 498.8359)" class="st5 st7"> </text>
	<text transform="matrix(1 0 0 1 136.07 497.9339)" class="st5 st7">1</text>
	<text transform="matrix(1 0 0 1 139.3412 496.1038)" class="st5 st7">8</text>
	<text transform="matrix(1 0 0 1 142.5974 494.2473)" class="st5 st7"> </text>
	<text transform="matrix(1 0 0 1 144.2224 493.3169)" class="st5 st7">G</text>
	<text transform="matrix(1 0 0 1 148.7459 490.6676)" class="st5 st7">r</text>
	<text transform="matrix(1 0 0 1 150.6775 489.5247)" class="st5 st7">u</text>
	<text transform="matrix(1 0 0 1 153.8934 487.5993)" class="st5 st7">p</text>
	<text transform="matrix(1 0 0 1 157.0994 485.6574)" class="st5 st7">p</text>
	<text transform="matrix(1 0 0 1 160.2956 483.6994)" class="st5 st7"> </text>
	<text transform="matrix(1 0 0 1 161.8902 482.7179)" class="st5 st7">1</text>
	<text transform="matrix(1 0 0 1 165.0751 480.7417)" class="st5 st7">0</text>
	<text transform="matrix(1 0 0 1 168.2527 478.7536)" class="st5 st7"> </text>
	<text transform="matrix(1 0 0 1 169.8384 477.7579)" class="st5 st6"> </text>
	<path class="st8" d="M41.1,563.7c56.2,49.5,228.4-145.8,230.3-20.7c-20.5-68.9-180.3,80.9-231.6,33.7"/>
	<path class="st8" d="M31.6,583.4c43.7,75.6,185.1-69.7,239.7-40.3"/>
	<path class="st8" d="M535.3,583.4c-136-4.9-184.5-176-242.7-37.1c40.1-48.8,90.8-29.6,145,11.5"/>
	<path class="st8" d="M487,590.8c-78.6-18.6-114.2-88-194.4-44.6"/>
	<path class="st9" d="M68.3,514.2c9.6-13.6,14.8-27.8,16.7-42.6c49.5,22.4,105.5-20.8,151.8-66.1
		C218.2,451.9,156.9,486.7,68.3,514.2z"/>
	<path class="st10" d="M282.1,525v-57.7c-45.4-24.2-88.3-3.1-129.6,46.8C207,469.7,255.1,459.6,282.1,525z"/>
	<path class="st9" d="M287.8,476.5v-39.7c16.7-92,86.4-28.6,150.4,17.9C357.3,404.4,291.6,382.4,287.8,476.5z"/>
	<path class="st10" d="M520.1,519.2l15.2,40.3c-13.2,11.9-62.1-12.4-132.4-58.4C458.4,528.2,509.7,550.1,520.1,519.2z"/>
</g>
<g id="Glödlampa">
	<polygon class="st11" points="297.1,406.6 269.7,319.5 280.2,333.1 280.2,306 286.3,341 288.6,312.1 291.9,335.1 300.2,295.5 
		300.2,338.4 306.2,314.2 306.2,337.4 318,309.1 306,363.9 	"/>
	<path class="st12" d="M287.4,483.3l-10-14.9l8.2-6.9l30.4,2.4v5.7l-10.4,14.6C298.8,486.8,292.8,486.4,287.4,483.3z"/>
	<path class="st12" d="M316,469.6c6.4-1.2,11.5-5.4,16.3-10.4L316,442.7l-46.8,3.2l-5.4,13.4c3.9,4.1,8.3,7.5,13.6,9.2
		C289.4,464,302.6,466.2,316,469.6z"/>
	<path class="st12" d="M262,416.3l1.8,42.9c25-12.7,48.5-10,68.4,0v-42.9C317.2,397.7,277.6,396.4,262,416.3z"/>
	<path class="st13" d="M332.3,416.3c-12.8-18.1-59.7-18.6-70.2,0c-4.4-2.9-7.4-6.6-5.4-13.8c4.9-43.1-30.4-50.6-30.4-77.9
		c-1.5-120.5,143.5-115.7,143.5-3.8c0,33.4-42.6,53.9-32.4,82.7C339.4,410.3,336.7,414,332.3,416.3z"/>
	<path class="st14" d="M296,409.1c-15.7,10.4-27,24-28.6,44.6l-1.9-36.1C274,411,284.6,409.1,296,409.1z"/>
	<path class="st15" d="M330.1,425.5v28.3c-5.1-4-15.2-5-26.3-5.4C317,445.5,327.1,439.4,330.1,425.5z"/>
	<path class="st14" d="M273.4,464c-2.9,0-4.8-1.5-5.6-4.8c5.8-3.2,12.5-5.3,20.7-5.5C280.6,456.2,273.7,458.9,273.4,464z"/>
	<path class="st15" d="M305.3,465.3l10.7,2.6l12-7.4C321.4,462.9,314.2,464.8,305.3,465.3z"/>
	<path class="st14" d="M286.2,478.3l-5.4-8.7c5.8-1.9,11.2-2.5,15.8-0.3C289.1,469.7,283.1,471,286.2,478.3z"/>
	<polygon class="st15" points="293.8,482.7 310.4,473.7 303.8,482.7 	"/>
	<path class="st16" d="M239.1,339.7c-25.5-55.5,30.6-124.6,91-89.5C272.9,264.8,242.1,294.4,239.1,339.7z"/>
	<path class="st17" d="M269.7,401.8c34.3-8,63-27.5,86.8-57.1c-14.2,21.6-29.8,44-31,57.1C321.2,396.3,297.1,395.2,269.7,401.8z"/>
</g>
<g id="lights">
	<polygon class="st18" points="116.9,364.1 221.4,331.5 169.1,315.5 211.3,331.5 	"/>
	<polygon class="st18" points="119.6,250.8 226.3,282.8 157.1,311.4 211.3,284.2 	"/>
	<polygon class="st18" points="386.5,156.2 333.7,240.6 281.4,187.5 331.9,231.4 	"/>
	<polygon class="st18" points="461.7,256.8 365.1,278.7 409.7,309.4 375.6,281.1 	"/>
	<polygon class="st18" points="461.7,360.4 372.9,331.5 406.6,311.4 382.4,330.1 	"/>
	<polygon class="st18" points="172.9,156.2 249.7,245.7 281.4,180.9 249.4,235.6 	"/>
</g>
</svg>
